<svg xmlns="http://www.w3.org/2000/svg" viewBox="0 0 100 100"><title>PSPDFKit_Web_SamplePDF_Pictogram_Magazine</title><g id="0164477b-7a48-4a3f-85c4-3903a2407a73" data-name="Ikone 2 copy 2"><rect x="60.5" y="46" width="29" height="3.65" fill="#46b0ad"/><rect x="60.5" y="54" width="29" height="3.65" fill="#46b0ad"/><rect x="60.5" y="62" width="29" height="3.65" fill="#46b0ad"/><rect x="60.5" y="70" width="29" height="3.65" fill="#46b0ad"/><rect x="60.5" y="14" width="29" height="3.65" fill="#46b0ad"/><rect x="60.5" y="22" width="29" height="3.65" fill="#46b0ad"/><rect x="60.5" y="30" width="29" height="3.65" fill="#46b0ad"/><rect x="60.5" y="38" width="29" height="3.65" fill="#46b0ad"/><rect x="60.5" y="78" width="29" height="3.65" fill="#46b0ad"/><circle cx="75" cy="92" r="3.47" fill="#942e53"/><rect width="50" height="100" fill="#c4cfd6"/><path d="M22.7,48.21a2.74,2.74,0,0,1-.5,0Z" fill="#8bcdfd"/><rect x="7" y="14" width="36" height="41.63" fill="#8493a3"/><circle cx="25" cy="45.75" r="7.2" fill="#c4cfd6"/><rect x="7" y="55.63" width="36" height="26.02" fill="#46b0ad"/><path d="M43,59.76H26.76s5-5,7-5.34,3.72.51,6.49-1.64S43,51.84,43,51.84Z" fill="#942e53"/><path d="M43,62.56H20.78s6.81-4,9.55-4.18,5.1.4,8.88-1.28S43,56.36,43,56.36Z" fill="#c5507a"/><path d="M8.93,67s1.05-2.1,2.53-2.1S15.78,67,15.78,67Z" fill="#c5507a"/><path d="M12.91,60.38a9.56,9.56,0,0,1,3-1.05,2.34,2.34,0,0,1,1.69,1.05Z" fill="#942e53"/><circle cx="25" cy="92" r="3.47" fill="#942e53"/></g></svg>