<svg xmlns="http://www.w3.org/2000/svg" viewBox="0 0 100 100"><title>PSPDFKit_Web_SamplePDF_Pictogram_Scientific</title><g id="5db72ab8-47a0-4b76-a5c5-ae17b8de7db4" data-name="Ikone 2 copy 2"><rect x="14" y="46" width="29" height="3.65" fill="#46b0ad"/><rect x="14" y="54" width="29" height="3.65" fill="#46b0ad"/><rect x="14" y="62" width="29" height="3.65" fill="#46b0ad"/><rect x="14" y="70" width="29" height="3.65" fill="#46b0ad"/><rect x="14" y="14" width="29" height="3.65" fill="#46b0ad"/><rect x="14" y="22" width="29" height="3.65" fill="#46b0ad"/><rect x="14" y="30" width="29" height="3.65" fill="#46b0ad"/><rect x="14" y="38" width="29" height="3.65" fill="#46b0ad"/><rect x="14" y="78" width="29" height="3.65" fill="#46b0ad"/><rect x="57" y="46" width="29" height="3.65" fill="#46b0ad"/><rect x="57" y="54" width="29" height="3.65" fill="#46b0ad"/><rect x="57" y="62" width="29" height="3.65" fill="#46b0ad"/><rect x="57" y="70" width="29" height="3.65" fill="#46b0ad"/><rect x="57" y="14" width="29" height="3.65" fill="#46b0ad"/><rect x="57" y="22" width="29" height="3.65" fill="#46b0ad"/><rect x="57" y="30" width="29" height="3.65" fill="#46b0ad"/><rect x="57" y="38" width="29" height="3.65" fill="#46b0ad"/><rect x="57" y="78" width="29" height="3.65" fill="#46b0ad"/><circle cx="50" cy="92" r="3.47" fill="#942e53"/></g></svg>