<svg xmlns="http://www.w3.org/2000/svg" viewBox="0 0 100 100"><title>PSPDFKit_Web_SamplePDF_Pictogram_Form</title><g id="9dd4f987-6018-4e75-9881-771f1ca5a02f" data-name="Ikone 2 copy 2"><path d="M92,22.83V61H58V22.83H92m1-1H57V62H93V21.83Z" fill="#c3cfd6"/><path d="M13,76.12a4,4,0,1,1-4,4,4,4,0,0,1,4-4m0-2a6,6,0,1,0,6,6,6,6,0,0,0-6-6Z" fill="#942e53"/><rect x="25.29" y="18.17" width="17.71" height="3.65" fill="#46b0ad"/><rect x="57" y="14" width="16.73" height="3.65" fill="#c3cfd6"/><circle cx="13" cy="80.13" r="2" fill="#942e53"/><path d="M17,16v8H9V16h8m2-2H7V26H19V14Z" fill="#942e53"/><rect x="25.29" y="36.17" width="17.71" height="3.65" fill="#46b0ad"/><path d="M17,34v8H9V34h8m2-2H7V44H19V32Z" fill="#942e53"/><rect x="25.29" y="54.17" width="17.71" height="3.65" fill="#46b0ad"/><rect x="25.29" y="78.3" width="17.71" height="3.65" fill="#46b0ad"/><path d="M63,76.12a4,4,0,1,1-4,4,4,4,0,0,1,4-4m0-2a6,6,0,1,0,6,6,6,6,0,0,0-6-6Z" fill="#942e53"/><rect x="75.29" y="78.3" width="17.71" height="3.65" fill="#46b0ad"/><path d="M17,52v8H9V52h8m2-2H7V62H19V50Z" fill="#942e53"/><line x1="7" y1="68.06" x2="93" y2="68.06" fill="none" stroke="#c3cfd6" stroke-miterlimit="10"/><polyline points="11.09 38.08 12.27 39.27 14.91 36.63" fill="none" stroke="#942e53" stroke-linecap="round" stroke-miterlimit="10" stroke-width="2"/></g></svg>